<?xml version="1.0" standalone="no"?>
<!DOCTYPE svg PUBLIC "-//W3C//DTD SVG 20010904//EN"
 "http://www.w3.org/TR/2001/REC-SVG-20010904/DTD/svg10.dtd">
<svg version="1.0" xmlns="http://www.w3.org/2000/svg"
 width="641.000000pt" height="641.000000pt" viewBox="0 0 641.000000 641.000000"
 preserveAspectRatio="xMidYMid meet">
<metadata>
Created by potrace 1.14, written by Peter Selinger 2001-2017
</metadata>
<g transform="translate(0.000000,641.000000) scale(0.100000,-0.100000)"
fill="#000000" stroke="none">
<path d="M3015 5589 c-333 -42 -638 -270 -764 -573 -50 -121 -65 -197 -65
-336 0 -232 71 -406 229 -565 94 -94 245 -188 370 -231 70 -24 95 -28 195 -28
98 0 126 4 188 26 177 63 294 188 338 361 26 99 14 171 -46 295 -77 158 -151
227 -270 253 -123 26 -240 -50 -240 -156 0 -43 37 -85 75 -85 42 0 75 -41 75
-95 0 -38 -6 -51 -36 -85 -91 -100 -268 -83 -372 35 -21 24 -39 50 -40 57 -14
146 -13 177 1 235 54 208 222 367 442 419 154 36 377 -1 486 -82 132 -97 243
-283 275 -464 90 -507 -293 -994 -836 -1061 -169 -20 -307 -3 -520 66 -165 53
-265 69 -430 69 -347 -1 -640 -118 -885 -355 -177 -171 -288 -372 -341 -616
-20 -93 -23 -317 -5 -411 61 -317 262 -599 531 -744 30 -16 78 -42 105 -59 28
-16 93 -43 145 -60 84 -28 111 -32 240 -37 123 -3 158 -1 232 17 244 58 440
213 539 426 70 151 87 311 49 459 -24 95 -108 263 -173 345 -160 206 -440 278
-657 169 -121 -60 -205 -178 -217 -301 -6 -75 7 -128 47 -189 28 -43 48 -56
183 -130 44 -25 83 -23 112 6 21 21 23 30 18 83 -5 53 -3 62 21 90 33 39 72
55 127 51 37 -3 47 -8 66 -37 33 -49 46 -107 40 -179 -12 -159 -150 -302 -328
-342 -77 -17 -209 -8 -284 19 -118 42 -247 150 -292 243 -10 21 -22 38 -26 38
-5 0 -6 3 -3 8 2 4 -2 34 -10 67 -19 81 -18 240 2 328 34 149 115 288 237 404
253 241 645 307 979 167 183 -76 374 -288 459 -508 17 -44 46 -147 65 -229 76
-337 220 -580 459 -776 99 -81 294 -200 402 -245 67 -28 177 -60 263 -76 83
-16 312 -13 406 5 432 82 770 410 850 823 28 145 15 337 -31 478 -24 72 -121
260 -170 329 -116 163 -273 276 -465 337 -65 20 -95 23 -225 23 -138 -1 -157
-3 -230 -29 -187 -64 -321 -180 -406 -348 -39 -77 -59 -166 -59 -263 0 -205
91 -359 280 -472 110 -65 164 -83 254 -83 62 0 82 5 135 31 120 60 171 182
113 269 -9 14 -26 47 -37 74 -24 59 -62 90 -111 90 -30 0 -42 -7 -66 -37 -23
-29 -37 -37 -61 -37 -55 1 -71 21 -64 83 3 30 14 72 25 94 27 51 101 119 160
145 61 27 174 35 255 17 54 -11 69 -19 118 -68 58 -59 110 -151 128 -231 6
-25 11 -86 11 -136 0 -104 -22 -191 -73 -289 -39 -73 -170 -207 -249 -253
-168 -99 -391 -126 -586 -72 -142 39 -304 138 -393 238 -50 57 -128 171 -134
198 -3 10 -14 50 -25 88 -64 222 -40 481 64 702 68 143 117 207 290 379 163
161 221 232 294 360 162 281 206 639 116 951 -30 105 -131 316 -206 429 -62
93 -195 231 -288 297 -227 161 -503 231 -775 197z"/>
</g>
</svg>
